<svg width="320" height="324" viewBox="0 0 320 324" fill="none" xmlns="http://www.w3.org/2000/svg">
<g clip-path="url(#clip0_3198_2708)">
<path d="M277.785 104.548H203.324C200.738 104.548 198.621 102.431 198.621 99.8444C198.621 97.2582 200.738 95.1411 203.324 95.1411H277.785C280.371 95.1411 282.488 97.2582 282.488 99.8444C282.488 102.431 280.371 104.548 277.785 104.548Z" fill="white"/>
<path d="M277.786 104.939H203.325C200.516 104.939 198.23 102.654 198.23 99.8444C198.23 97.0352 200.516 94.75 203.325 94.75H277.786C280.595 94.75 282.88 97.0352 282.88 99.8444C282.88 102.654 280.595 104.939 277.786 104.939ZM203.325 95.5342C200.948 95.5342 199.015 97.4672 199.015 99.8444C199.015 102.222 200.948 104.155 203.325 104.155H277.786C280.163 104.155 282.096 102.222 282.096 99.8444C282.096 97.4672 280.163 95.5342 277.786 95.5342H203.325Z" fill="#F1813B"/>
<path d="M271.513 120.222H193.133C190.547 120.222 188.43 118.105 188.43 115.519C188.43 112.933 190.547 110.815 193.133 110.815H271.513C274.099 110.815 276.216 112.933 276.216 115.519C276.216 118.105 274.099 120.222 271.513 120.222Z" fill="white"/>
<path d="M271.513 120.615H193.133C190.324 120.615 188.039 118.33 188.039 115.521C188.039 112.712 190.324 110.426 193.133 110.426H271.513C274.323 110.426 276.608 112.712 276.608 115.521C276.608 118.33 274.323 120.615 271.513 120.615ZM193.133 111.21C190.756 111.21 188.823 113.143 188.823 115.521C188.823 117.898 190.756 119.831 193.133 119.831H271.513C273.891 119.831 275.824 117.898 275.824 115.521C275.824 113.143 273.891 111.21 271.513 111.21H193.133Z" fill="#F1813B"/>
<path d="M45.261 289.647H180.352C186.174 289.647 190.297 284.942 189.563 279.14L156.3 16.356C155.565 10.5535 150.251 5.84843 144.429 5.84843L16.1192 4.34912C1.3899 4.34912 -0.608581 10.5517 0.126026 16.356L33.3904 279.14C34.125 284.942 39.439 289.647 45.261 289.647Z" fill="#F1813B"/>
<path d="M53.3916 289.647H188.483C194.305 289.647 198.428 284.928 197.693 279.106L164.43 15.485C163.696 9.66303 158.382 4.94385 152.56 4.94385H17.4666C11.6447 4.94385 7.52201 9.66303 8.25662 15.485L41.521 279.106C42.2556 284.928 47.5696 289.647 53.3916 289.647Z" fill="white"/>
<path d="M188.486 290.039H53.3943C47.3917 290.039 41.8919 285.157 41.1343 279.156L7.86989 15.5347C7.49816 12.5909 8.30357 9.8242 10.1374 7.74429C11.9518 5.68739 14.5557 4.55273 17.4693 4.55273H152.561C158.563 4.55273 164.063 9.43477 164.821 15.4355L198.085 279.057C198.457 282 197.652 284.767 195.818 286.847C194.003 288.904 191.399 290.039 188.486 290.039ZM17.4693 5.3369C14.784 5.3369 12.389 6.37598 10.7251 8.26294C9.04172 10.1711 8.30534 12.7201 8.64698 15.4373L41.9114 279.058C42.6212 284.682 47.7723 289.256 53.3943 289.256H188.486C191.171 289.256 193.566 288.217 195.23 286.33C196.913 284.422 197.65 281.873 197.308 279.156L164.044 15.5347C163.334 9.91094 158.183 5.3369 152.561 5.3369H17.4693Z" fill="#F1813B"/>
<path d="M67.0867 290.039H53.393C47.3904 290.039 41.8906 285.156 41.133 279.156L36.0421 238.816C36.0155 238.602 36.1677 238.405 36.3819 238.379C36.5979 238.351 36.7926 238.505 36.8192 238.719L41.9101 279.058C42.6199 284.682 47.771 289.256 53.393 289.256H67.0867C67.3027 289.256 67.4779 289.431 67.4779 289.647C67.4779 289.863 67.3027 290.039 67.0867 290.039Z" fill="#F1813B"/>
<path d="M187.868 282.294H52.0492C50.5163 282.294 49.1126 281.048 48.9196 279.519L17.1598 27.8054C17.0625 27.0389 17.2749 26.3149 17.7564 25.7697C18.2325 25.228 18.914 24.9307 19.6752 24.9307H155.494C157.027 24.9307 158.429 26.1768 158.624 27.7062L190.385 279.42C190.483 280.186 190.27 280.91 189.789 281.455C189.313 281.995 188.631 282.294 187.87 282.294H187.868ZM19.6734 25.7148C19.1406 25.7148 18.668 25.9184 18.3423 26.2884C18.0113 26.6636 17.8679 27.1663 17.9351 27.708L49.6967 279.421C49.8419 280.574 50.8969 281.512 52.0492 281.512H187.868C188.401 281.512 188.874 281.308 189.199 280.938C189.53 280.563 189.674 280.06 189.607 279.519L157.845 27.8054C157.7 26.653 156.645 25.7148 155.494 25.7148H19.6734Z" fill="#F1813B"/>
<path d="M86.7051 18.3525C88.8859 18.3525 90.4312 16.5841 90.1551 14.4033C89.8789 12.2225 87.8893 10.4541 85.7085 10.4541C83.5277 10.4541 81.9824 12.2225 82.2585 14.4033C82.5329 16.5841 84.5243 18.3525 86.7051 18.3525Z" fill="#F1813B"/>
<path d="M178.081 196.23C178.056 196.23 178.031 196.23 178.004 196.23C170.168 196.207 162.103 191.488 154.035 182.205C148.379 175.698 144.781 169.262 144.63 168.991C143.43 166.831 144.209 164.111 146.367 162.911C148.525 161.712 151.247 162.489 152.447 164.647C155.954 170.936 167.384 187.255 178.029 187.287C178.045 187.287 178.061 187.287 178.077 187.287C181.454 187.287 184.065 186.244 186.057 184.101C190.826 178.969 191.174 168.715 190.907 165.196C190.719 162.734 192.564 160.585 195.026 160.397C197.485 160.209 199.637 162.054 199.825 164.516C199.876 165.192 200.99 181.169 192.608 190.188C188.882 194.198 183.995 196.23 178.079 196.23H178.081Z" fill="#F1813B"/>
<path d="M209.478 164.012H182.995C180.525 164.012 178.523 162.01 178.523 159.54C178.523 157.071 180.525 155.069 182.995 155.069H209.478C211.947 155.069 213.949 157.071 213.949 159.54C213.949 162.01 211.947 164.012 209.478 164.012Z" fill="#F1813B"/>
<path d="M173.082 76.0482H175.192C181.515 76.0482 186.648 81.1816 186.648 87.5045V91.0324C186.648 97.3553 181.515 102.489 175.192 102.489H173.082V76.0464V76.0482Z" fill="white"/>
<path d="M175.189 102.881H173.079C172.863 102.881 172.688 102.706 172.688 102.49V76.0479C172.688 75.832 172.863 75.6567 173.079 75.6567H175.189C181.722 75.6567 187.038 80.9725 187.038 87.506V91.0339C187.038 97.5675 181.722 102.883 175.189 102.883V102.881ZM173.47 102.097H175.189C181.29 102.097 186.254 97.1338 186.254 91.0321V87.5043C186.254 81.4026 181.29 76.4391 175.189 76.4391H173.47V102.097Z" fill="#F1813B"/>
<path d="M53.6914 102.489H51.5814C45.2585 102.489 40.1251 97.3556 40.1251 91.0326V87.5047C40.1251 81.1818 45.2585 76.0484 51.5814 76.0484H53.6914V102.491V102.489Z" fill="white"/>
<path d="M53.6898 102.882H51.5798C45.0462 102.882 39.7305 97.566 39.7305 91.0325V87.5046C39.7305 80.971 45.0462 75.6553 51.5798 75.6553H53.6898C53.9057 75.6553 54.081 75.8305 54.081 76.0465V102.489C54.081 102.705 53.9057 102.88 53.6898 102.88V102.882ZM51.5798 76.4394C45.4781 76.4394 40.5146 81.4029 40.5146 87.5046V91.0325C40.5146 97.1341 45.4781 102.098 51.5798 102.098H53.2986V76.4394H51.5798Z" fill="#F1813B"/>
<path d="M49.418 88.1773C49.418 59.7649 78.057 30.3735 113.387 30.3735C148.717 30.3735 177.356 59.7649 177.356 88.1773C177.356 116.59 148.717 133.266 113.387 133.266C78.057 133.266 49.418 116.59 49.418 88.1773Z" fill="white"/>
<path d="M113.388 133.657C95.6386 133.657 79.4967 129.411 67.9377 121.702C55.5662 113.451 49.0273 101.859 49.0273 88.1773C49.0273 74.4959 55.9008 59.6196 67.8864 48.335C80.4561 36.4999 96.6157 29.9805 113.388 29.9805C130.16 29.9805 146.319 36.4981 158.889 48.335C170.875 59.6196 177.748 74.1418 177.748 88.1773C177.748 102.213 171.209 113.451 158.838 121.702C147.279 129.411 131.137 133.657 113.388 133.657ZM113.388 30.7646C77.0008 30.7646 49.8115 61.0765 49.8115 88.1773C49.8115 101.584 56.23 112.952 68.3732 121.05C79.8047 128.674 95.7926 132.873 113.388 132.873C130.983 132.873 146.971 128.674 158.402 121.05C170.545 112.952 176.964 101.584 176.964 88.1773C176.964 61.0765 149.775 30.7646 113.388 30.7646Z" fill="#F1813B"/>
<path d="M129.408 141.802H97.3612C83.3152 141.802 71.9297 153.187 71.9297 167.233C71.9297 176.512 72.8342 185.77 74.6327 194.874L79.2404 218.208C82.4602 234.516 96.7629 246.27 113.385 246.27C130.006 246.27 144.309 234.516 147.529 218.208L152.136 194.874C153.933 185.77 154.839 176.512 154.839 167.233C154.839 153.187 143.454 141.802 129.408 141.802Z" fill="white"/>
<path d="M113.385 246.661C96.6237 246.661 82.1032 234.727 78.8568 218.284L74.2491 194.95C72.4507 185.843 71.5391 176.518 71.5391 167.233C71.5391 152.994 83.1228 141.409 97.3618 141.409H129.408C143.647 141.409 155.233 152.992 155.233 167.233C155.233 176.516 154.321 185.841 152.523 194.95L147.915 218.284C144.669 234.727 130.147 246.661 113.385 246.661ZM97.3618 142.193C83.5547 142.193 72.3215 153.426 72.3215 167.233C72.3215 176.466 73.2278 185.74 75.0174 194.798L79.625 218.132C82.7989 234.208 96.9972 245.877 113.385 245.877C129.773 245.877 143.971 234.208 147.145 218.132L151.753 194.798C153.542 185.738 154.449 176.464 154.449 167.233C154.449 153.426 143.215 142.193 129.408 142.193H97.3618Z" fill="#F1813B"/>
<path d="M130.83 142.193H95.942C95.726 142.193 95.5508 142.018 95.5508 141.802C95.5508 141.586 95.726 141.411 95.942 141.411H130.83C131.046 141.411 131.221 141.586 131.221 141.802C131.221 142.018 131.046 142.193 130.83 142.193Z" fill="#F1813B"/>
<path d="M156.395 79.6484H94.7943C88.3953 79.6484 83.207 85.2385 83.207 92.135V100.281C83.207 105.54 86.0145 111.114 90.8558 112.024C107.927 115.232 143.262 115.232 160.334 112.024C165.175 111.114 167.982 105.542 167.982 100.281V92.135C167.982 85.2385 162.794 79.6484 156.395 79.6484Z" fill="#F1813B"/>
<path d="M107.237 100.225C109.381 100.225 111.119 98.3518 111.119 96.0417C111.119 93.7316 109.381 91.8589 107.237 91.8589C105.093 91.8589 103.355 93.7316 103.355 96.0417C103.355 98.3518 105.093 100.225 107.237 100.225Z" fill="white"/>
<path d="M148.538 100.225C150.682 100.225 152.42 98.3518 152.42 96.0417C152.42 93.7316 150.682 91.8589 148.538 91.8589C146.394 91.8589 144.656 93.7316 144.656 96.0417C144.656 98.3518 146.394 100.225 148.538 100.225Z" fill="white"/>
<path d="M128.613 186.411C136.633 178.39 136.633 165.387 128.613 157.367C120.592 149.346 107.589 149.346 99.5688 157.367C91.5486 165.387 91.5486 178.39 99.5688 186.411C107.589 194.431 120.592 194.431 128.613 186.411Z" fill="white"/>
<path d="M114.088 192.817C102.549 192.817 93.1602 183.428 93.1602 171.889C93.1602 160.349 102.549 150.96 114.088 150.96C125.628 150.96 135.017 160.349 135.017 171.889C135.017 183.428 125.628 192.817 114.088 192.817ZM114.088 151.745C102.981 151.745 93.9443 160.781 93.9443 171.889C93.9443 182.996 102.981 192.033 114.088 192.033C125.196 192.033 134.233 182.996 134.233 171.889C134.233 160.781 125.196 151.745 114.088 151.745Z" fill="#F1813B"/>
<path d="M116.069 160.222H112.809C111.098 160.222 109.711 161.609 109.711 163.32V181.304C109.711 183.015 111.098 184.402 112.809 184.402H116.069C117.78 184.402 119.167 183.015 119.167 181.304V163.32C119.167 161.609 117.78 160.222 116.069 160.222Z" fill="#F1813B"/>
<path d="M123.377 167.563H105.5C103.789 167.563 102.402 168.95 102.402 170.661V173.964C102.402 175.675 103.789 177.062 105.5 177.062H123.377C125.088 177.062 126.474 175.675 126.474 173.964V170.661C126.474 168.95 125.088 167.563 123.377 167.563Z" fill="#F1813B"/>
<path d="M72.4715 216.556C63.7111 216.556 51.8565 215.308 44.259 209.483C39.8797 206.125 37.3219 201.693 36.6563 196.308C33.6665 172.133 62.8402 158.296 64.0828 157.717C66.322 156.676 68.9808 157.65 70.0216 159.891C71.0607 162.128 70.0906 164.785 67.855 165.826C67.6089 165.941 43.3421 177.507 45.5318 195.209C45.8982 198.166 47.2612 200.514 49.7004 202.385C58.0537 208.789 76.2702 207.89 82.5843 207.003C85.0288 206.66 87.2911 208.364 87.6345 210.809C87.9779 213.255 86.275 215.516 83.8287 215.859C83.3808 215.923 78.7094 216.555 72.4715 216.555V216.556Z" fill="#F1813B"/>
<path d="M103.347 221.313H94.7601C90.0692 221.313 86.1785 217.792 85.7112 213.124L85.412 210.136C85.1571 207.583 85.9979 205.031 87.7185 203.13C89.4391 201.229 91.8978 200.138 94.4609 200.138H108.158C110.628 200.138 112.63 202.14 112.63 204.61C112.63 207.079 110.628 209.081 108.158 209.081H94.4609C94.4362 209.081 94.3937 209.081 94.3494 209.13C94.3052 209.18 94.3087 209.223 94.3105 209.247L94.6096 212.235C94.6167 212.313 94.6822 212.372 94.7601 212.372H103.347C105.816 212.372 107.818 214.374 107.818 216.843C107.818 219.312 105.816 221.314 103.347 221.314V221.313Z" fill="#F1813B"/>
<path d="M306.912 212.912C306.848 212.912 306.782 212.896 306.722 212.862C306.533 212.758 306.464 212.519 306.568 212.33L308.034 209.666C308.138 209.476 308.376 209.407 308.567 209.512C308.756 209.616 308.825 209.855 308.721 210.044L307.255 212.708C307.184 212.838 307.05 212.912 306.912 212.912Z" fill="#F1813B"/>
<path d="M303.498 219.117C303.434 219.117 303.368 219.101 303.308 219.067C303.119 218.963 303.05 218.724 303.154 218.534L304.62 215.87C304.724 215.681 304.962 215.612 305.153 215.716C305.342 215.821 305.411 216.06 305.307 216.249L303.841 218.913C303.77 219.042 303.636 219.117 303.498 219.117Z" fill="#F1813B"/>
<path d="M304.169 213.709C304.106 213.709 304.04 213.693 303.98 213.659L301.316 212.194C301.127 212.089 301.058 211.85 301.162 211.661C301.266 211.471 301.504 211.402 301.695 211.507L304.359 212.972C304.548 213.077 304.617 213.316 304.513 213.505C304.442 213.634 304.308 213.709 304.169 213.709Z" fill="#F1813B"/>
<path d="M310.373 217.123C310.309 217.123 310.243 217.107 310.183 217.074L307.519 215.608C307.33 215.504 307.261 215.265 307.365 215.075C307.47 214.886 307.709 214.817 307.898 214.921L310.562 216.387C310.751 216.491 310.82 216.73 310.716 216.92C310.645 217.049 310.511 217.123 310.373 217.123Z" fill="#F1813B"/>
<path d="M168.618 8.16047C168.172 8.16047 167.725 8.07728 167.295 7.91088C166.362 7.54801 165.628 6.83641 165.226 5.90532C164.406 4.00596 165.258 1.77913 167.122 0.941858C168.019 0.538266 169.019 0.513484 169.935 0.869282C170.867 1.23216 171.602 1.94375 172.004 2.87485C172.823 4.7742 171.974 7.00103 170.11 7.83831C169.632 8.0525 169.124 8.16047 168.618 8.16047ZM168.616 1.40386C168.218 1.40386 167.819 1.48883 167.444 1.65699C165.969 2.31902 165.297 4.08562 165.948 5.59378C166.265 6.33015 166.846 6.89306 167.582 7.17805C168.301 7.45773 169.085 7.43826 169.791 7.1214C171.266 6.45937 171.938 4.69278 171.287 3.18285C170.97 2.44647 170.39 1.88357 169.653 1.59858C169.317 1.46759 168.966 1.40209 168.616 1.40209V1.40386Z" fill="#F1813B"/>
<path d="M164.249 309.88C163.43 309.88 162.61 309.871 161.79 309.855C161.574 309.852 161.403 309.671 161.406 309.455C161.412 309.239 161.61 309.066 161.806 309.071C178.97 309.418 196.363 306.095 213.473 299.192C213.671 299.11 213.901 299.208 213.983 299.408C214.064 299.608 213.967 299.836 213.765 299.918C197.372 306.531 180.726 309.878 164.247 309.878L164.249 309.88Z" fill="#F1813B"/>
<path d="M155.702 309.531H155.697C144.775 309.377 137.944 307.71 137.875 307.692C137.665 307.639 137.537 307.426 137.59 307.218C137.642 307.007 137.854 306.879 138.065 306.931C138.132 306.947 144.885 308.595 155.708 308.747C155.923 308.75 156.097 308.928 156.093 309.145C156.09 309.359 155.915 309.531 155.702 309.531Z" fill="#F1813B"/>
<path d="M165.299 317.106C160.989 317.106 158.437 316.877 158.346 316.868C158.13 316.847 157.973 316.656 157.994 316.442C158.014 316.226 158.201 316.068 158.422 316.09C158.743 316.12 190.835 318.979 221.839 303.863C222.036 303.768 222.27 303.849 222.363 304.044C222.459 304.239 222.378 304.472 222.183 304.568C199.637 315.56 176.519 317.107 165.301 317.107L165.299 317.106Z" fill="#F1813B"/>
<path d="M309.244 190.81C309.212 190.81 309.182 190.807 309.15 190.799C308.939 190.748 308.812 190.536 308.863 190.325C313.347 172.016 313.633 154.29 309.718 137.635C309.668 137.424 309.799 137.214 310.01 137.164C310.219 137.115 310.431 137.246 310.481 137.456C314.426 154.232 314.138 172.082 309.626 190.513C309.582 190.691 309.422 190.812 309.245 190.812L309.244 190.81Z" fill="#F1813B"/>
<path d="M314.29 197.062C314.249 197.062 314.208 197.055 314.168 197.043C313.962 196.975 313.851 196.754 313.918 196.547C325.059 162.759 315.185 132.158 315.085 131.854C315.017 131.648 315.127 131.427 315.334 131.358C315.541 131.289 315.761 131.402 315.83 131.608C315.932 131.916 325.889 162.75 314.665 196.793C314.61 196.958 314.458 197.062 314.293 197.062H314.29Z" fill="#F1813B"/>
<path d="M4.59187 192.901C4.07322 192.901 3.54926 192.77 3.06956 192.492C1.61096 191.649 1.11002 189.778 1.95083 188.32C2.79342 186.861 4.66622 186.36 6.12304 187.203C7.58164 188.045 8.08258 189.916 7.24177 191.375C6.6771 192.354 5.64865 192.901 4.59187 192.901ZM4.59896 187.578C3.81478 187.578 3.05009 187.985 2.62879 188.712C2.00216 189.796 2.37566 191.187 3.45899 191.814C4.54231 192.44 5.93364 192.069 6.56027 190.984C7.1869 189.9 6.8134 188.509 5.73007 187.882C5.37427 187.677 4.98307 187.578 4.59719 187.578H4.59896Z" fill="#F1813B"/>
<path d="M19.9181 244.063C19.7995 244.063 19.6827 244.01 19.6066 243.909C12.2765 234.297 6.8687 220.143 3.07352 200.638C3.03281 200.426 3.17088 200.22 3.3833 200.178C3.59394 200.137 3.80105 200.275 3.84353 200.488C7.61569 219.873 12.9757 233.92 20.2297 243.433C20.3607 243.605 20.3288 243.851 20.1553 243.982C20.0845 244.037 20.0013 244.061 19.9181 244.061V244.063Z" fill="#F1813B"/>
<path d="M255.837 68.3862C268.51 68.3862 278.783 58.1128 278.783 45.4399C278.783 32.7671 268.51 22.4937 255.837 22.4937C243.164 22.4937 232.891 32.7671 232.891 45.4399C232.891 58.1128 243.164 68.3862 255.837 68.3862Z" fill="white"/>
<path d="M255.839 68.7771C242.97 68.7771 232.5 58.3068 232.5 45.4379C232.5 32.569 242.969 22.0986 255.839 22.0986C268.71 22.0986 279.179 32.569 279.179 45.4379C279.179 58.3068 268.708 68.7771 255.839 68.7771ZM255.839 22.8846C243.402 22.8846 233.284 33.0027 233.284 45.4397C233.284 57.8766 243.402 67.9947 255.839 67.9947C268.276 67.9947 278.394 57.8766 278.394 45.4397C278.394 33.0027 268.276 22.8846 255.839 22.8846Z" fill="#F1813B"/>
<path d="M262.066 58.5233H249.347C248.399 58.5233 247.519 58.0507 246.995 57.2612C246.471 56.4699 246.377 55.4769 246.747 54.6024L251.284 43.8736C252.107 41.9265 252.525 39.866 252.525 37.7507V32.7926C252.525 32.5766 252.7 32.4014 252.916 32.4014H258.492C258.708 32.4014 258.883 32.5766 258.883 32.7926V37.7507C258.883 39.866 259.301 41.9265 260.124 43.8736L264.661 54.6024C265.031 55.4769 264.939 56.4699 264.415 57.2612C263.891 58.0524 263.011 58.525 262.062 58.525L262.066 58.5233ZM253.311 33.1838V37.7507C253.311 39.9722 252.872 42.1354 252.008 44.1799L247.471 54.9087C247.2 55.5494 247.266 56.2487 247.65 56.8293C248.034 57.4081 248.653 57.7409 249.349 57.7409H262.067C262.763 57.7409 263.383 57.4081 263.767 56.8293C264.151 56.2504 264.216 55.5494 263.946 54.9087L259.409 44.1799C258.543 42.1336 258.106 39.9722 258.106 37.7507V33.1838H253.314H253.311Z" fill="#F1813B"/>
<path d="M258.211 33.1853H253.206C252.265 33.1853 251.5 32.4188 251.5 31.4789C251.5 30.5389 252.265 29.7725 253.206 29.7725H258.211C259.152 29.7725 259.917 30.5389 259.917 31.4789C259.917 32.4188 259.151 33.1853 258.211 33.1853ZM253.206 30.5549C252.698 30.5549 252.284 30.9691 252.284 31.4771C252.284 31.9851 252.698 32.3993 253.206 32.3993H258.211C258.72 32.3993 259.133 31.9851 259.133 31.4771C259.133 30.9691 258.719 30.5549 258.211 30.5549H253.206Z" fill="#F1813B"/>
<path d="M259.494 44.6665H251.923L247.574 54.951C247.318 55.5564 247.379 56.2184 247.742 56.7672C248.105 57.3159 248.691 57.6292 249.35 57.6292H262.068C262.727 57.6292 263.312 57.3141 263.675 56.7672C264.038 56.2184 264.1 55.5564 263.844 54.951L259.494 44.6665Z" fill="#F1813B"/>
<path d="M259.509 44.6665C259.509 44.7922 257.812 44.8931 255.72 44.8931C253.627 44.8931 251.93 44.7922 251.93 44.6665C251.93 44.5408 253.627 44.4399 255.72 44.4399C257.812 44.4399 259.509 44.5408 259.509 44.6665Z" fill="white"/>
<path d="M216.239 38.85C225.037 30.0521 225.037 15.7878 216.239 6.98984C207.442 -1.8081 193.177 -1.80809 184.379 6.98984C175.581 15.7878 175.581 30.0521 184.379 38.85C193.177 47.6479 207.442 47.6479 216.239 38.85Z" fill="white"/>
<path d="M200.31 45.8395C187.673 45.8395 177.391 35.5585 177.391 22.9197C177.391 10.281 187.672 0 200.31 0C212.949 0 223.23 10.2827 223.23 22.9197C223.23 35.5567 212.947 45.8395 200.31 45.8395ZM200.31 0.784171C188.105 0.784171 178.175 10.7146 178.175 22.9197C178.175 35.1248 188.105 45.0553 200.31 45.0553C212.515 45.0553 222.446 35.1248 222.446 22.9197C222.446 10.7146 212.515 0.784171 200.31 0.784171Z" fill="#F1813B"/>
<path d="M209.797 26.89C209.797 32.1915 205.499 36.4894 200.197 36.4894C194.896 36.4894 190.598 32.1915 190.598 26.89C190.598 22.077 198.501 10.4224 199.958 8.31416C200.086 8.13006 200.351 8.11944 200.493 8.29469C202.158 10.3463 209.797 22.0628 209.797 26.89Z" fill="#F1813B"/>
<path d="M193.2 25.61C193.166 25.61 193.131 25.6047 193.097 25.5959C192.889 25.5392 192.765 25.3233 192.823 25.1144C193.195 23.7496 194.006 21.9352 195.23 19.7261C195.337 19.5367 195.574 19.4676 195.763 19.5738C195.953 19.6783 196.022 19.9173 195.916 20.1067C194.721 22.2627 193.933 24.0169 193.577 25.3215C193.529 25.495 193.372 25.61 193.2 25.61Z" fill="white"/>
<path d="M199.85 33.9296C196.411 33.9296 193.416 31.4868 192.727 28.1236C192.683 27.9112 192.821 27.704 193.033 27.6616C193.244 27.6191 193.453 27.7554 193.495 27.9678C194.109 30.9699 196.782 33.1472 199.852 33.1472C200.889 33.1472 201.879 32.91 202.796 32.4427C202.988 32.3436 203.224 32.4215 203.323 32.6144C203.422 32.8073 203.344 33.0428 203.151 33.1419C202.123 33.6659 201.015 33.9314 199.852 33.9314L199.85 33.9296Z" fill="white"/>
<path d="M312.29 107.886C321.251 98.925 321.251 84.3963 312.29 75.4352C303.329 66.4741 288.8 66.4741 279.839 75.4352C270.878 84.3963 270.878 98.925 279.839 107.886C288.8 116.847 303.329 116.847 312.29 107.886Z" fill="white"/>
<path d="M296.08 115.001C286.261 115.001 277.102 108.75 273.884 98.9243C269.878 86.6944 276.569 73.4857 288.799 69.4798C294.726 67.5398 301.049 68.023 306.61 70.8393C312.172 73.6556 316.304 78.4704 318.244 84.395C320.184 90.3196 319.702 96.6444 316.884 102.206C314.068 107.768 309.253 111.899 303.329 113.839C300.925 114.627 298.482 115.001 296.082 115.001H296.08ZM296.085 69.0939C293.724 69.0939 291.352 69.4692 289.042 70.2251C277.223 74.0963 270.756 86.8608 274.628 98.68C277.738 108.175 286.59 114.215 296.078 114.216C298.401 114.216 300.758 113.855 303.083 113.094C308.807 111.22 313.461 107.226 316.183 101.852C318.906 96.478 319.371 90.3657 317.497 84.6393C315.622 78.9147 311.629 74.261 306.255 71.5385C303.049 69.9135 299.579 69.0922 296.085 69.0922V69.0939Z" fill="#F1813B"/>
<path d="M285.611 100.687C287.917 103.213 291.833 103.39 294.359 101.086L305.514 90.9003C308.04 88.5939 308.217 84.6783 305.913 82.1523C303.606 79.6263 299.691 79.4493 297.165 81.754L286.009 91.9394C283.483 94.2459 283.306 98.1614 285.611 100.687Z" fill="white"/>
<path d="M290.193 103.096C290.091 103.096 289.99 103.095 289.887 103.089C288.131 103.01 286.51 102.25 285.324 100.951C284.138 99.6518 283.529 97.9702 283.608 96.2124C283.688 94.4564 284.448 92.835 285.747 91.649L296.902 81.4636C298.2 80.2776 299.887 79.6705 301.641 79.7484C303.397 79.828 305.018 80.5874 306.204 81.8867C307.39 83.186 307.999 84.8676 307.92 86.6253C307.84 88.3813 307.08 90.0028 305.781 91.1888L294.626 101.374C293.403 102.491 291.84 103.096 290.193 103.096ZM301.34 80.5308C299.943 80.5308 298.543 81.0317 297.431 82.0442L286.276 92.2296C285.133 93.274 284.463 94.7025 284.393 96.2496C284.322 97.7967 284.86 99.2801 285.904 100.424C286.949 101.567 288.375 102.236 289.924 102.307C291.461 102.378 292.953 101.841 294.098 100.797L305.254 90.6117C307.615 88.4557 307.783 84.7791 305.627 82.4177C304.485 81.1662 302.915 80.5308 301.342 80.5308H301.34Z" fill="#F1813B"/>
<path d="M305.906 82.1449C308.212 84.6709 308.011 88.5617 305.486 90.8682L299.774 96.083L291.469 86.9863L297.181 81.7715C299.707 79.465 303.6 79.619 305.906 82.1449Z" fill="#F1813B"/>
<path d="M302.786 91.3037C302.68 91.3037 302.574 91.2612 302.497 91.1762C302.35 91.0169 302.363 90.7691 302.522 90.6222L303.852 89.4096C304.641 88.6892 305.103 87.7085 305.151 86.65C305.2 85.5915 304.83 84.5736 304.11 83.7842C303.963 83.6248 303.975 83.377 304.135 83.2301C304.294 83.0849 304.542 83.0956 304.689 83.2549C305.551 84.1984 305.992 85.4162 305.933 86.6854C305.875 87.9528 305.323 89.1264 304.379 89.9867L303.05 91.1993C302.975 91.2683 302.88 91.3019 302.786 91.3019V91.3037Z" fill="white"/>
<path d="M242.566 157.401C242.483 157.401 242.4 157.374 242.329 157.32L241.485 156.673C240.61 156.004 239.637 154.744 239.596 154.691C239.465 154.519 239.497 154.273 239.669 154.142C239.84 154.011 240.087 154.043 240.218 154.215C240.226 154.227 241.168 155.447 241.961 156.052L242.805 156.698C242.977 156.829 243.011 157.075 242.878 157.247C242.802 157.348 242.685 157.401 242.566 157.401Z" fill="#F1813B"/>
<path d="M244 155.79C243.94 155.79 243.878 155.776 243.819 155.746L242.876 155.256C241.899 154.747 240.723 153.673 240.674 153.629C240.515 153.482 240.504 153.234 240.649 153.075C240.796 152.915 241.042 152.905 241.203 153.05C241.214 153.061 242.352 154.1 243.237 154.56L244.18 155.05C244.372 155.149 244.446 155.386 244.347 155.579C244.278 155.714 244.14 155.79 243.998 155.79H244Z" fill="#F1813B"/>
<path d="M276.387 138.446C278.971 138.781 293.026 141.624 294.219 157.459C294.246 157.824 294.058 158.171 293.741 158.353L285.615 163.032C285.308 163.207 285.126 163.535 285.137 163.887C285.225 166.783 285.691 179.942 286.919 185.47C287.877 189.779 288.542 193.294 288.861 195.052C288.974 195.671 288.466 196.225 287.84 196.169C285.852 195.986 281.906 195.547 279.304 194.747C276.036 193.742 274.594 191.825 266.697 195.101C265.039 195.79 263.159 195.696 261.573 194.855C257.248 192.567 248.245 188.506 242.037 190.557C241.335 190.789 240.648 190.172 240.809 189.449C241.715 185.385 243.611 177.549 243.813 173.407C244.066 168.231 241.09 150.997 242.475 149.196C243.793 147.483 249.598 143.543 253.522 142.463C254.958 142.068 256.469 142.029 257.68 141.732C260.719 140.983 269.145 137.512 276.387 138.448V138.446Z" fill="#F1813B"/>
<path d="M290.282 177.02C287.866 180.629 285.069 181.78 278.972 180.208C272.878 178.636 259.954 169.383 253.566 160.572C253.566 160.572 253.125 159.765 251.877 159.911C250.629 160.058 245.489 162.041 241.67 158.663C237.852 155.286 238.764 152.865 238.955 152.404C239.277 151.627 244.975 152.62 246.517 151.933C248.059 151.247 248.041 150.179 246.883 148.604C245.503 146.722 248.581 146.292 250.923 149.632C252.346 151.663 254.741 154.332 256.908 155.429C259.147 156.562 281.913 164.755 283.086 164.39C284.262 164.025 291.654 159.557 291.654 159.557C291.654 159.557 292.916 173.09 290.282 177.022V177.02Z" fill="white"/>
<path d="M283.527 181.284C282.183 181.284 280.652 181.047 278.873 180.586C272.626 178.976 259.573 169.528 253.247 160.8C253.236 160.786 253.227 160.772 253.22 160.757C253.21 160.74 252.868 160.187 251.921 160.297C251.749 160.317 251.457 160.386 251.121 160.464C249.064 160.943 244.786 161.94 241.408 158.954C237.71 155.682 238.206 153.176 238.59 152.252C238.847 151.634 239.994 151.65 242.359 151.744C243.915 151.806 245.678 151.875 246.354 151.572C246.897 151.33 247.205 151.052 247.292 150.719C247.407 150.282 247.163 149.648 246.565 148.83C246.055 148.136 246.101 147.648 246.23 147.363C246.382 147.021 246.719 146.809 247.177 146.764C248.213 146.664 249.87 147.442 251.241 149.402C252.603 151.344 254.948 153.995 257.081 155.074C259.733 156.415 281.649 164.142 282.994 164.004C283.893 163.722 289.404 160.453 291.448 159.217C291.565 159.148 291.708 159.143 291.827 159.203C291.947 159.263 292.029 159.382 292.041 159.517C292.093 160.074 293.286 173.233 290.606 177.236C288.752 180.004 286.641 181.28 283.527 181.28V181.284ZM253.891 160.354C260.133 168.955 272.949 178.248 279.07 179.827C285.386 181.456 287.844 179.951 289.954 176.8C292.165 173.501 291.517 162.906 291.312 160.216C289.503 161.303 284.237 164.438 283.199 164.76C283.16 164.772 283.106 164.777 283.037 164.777C280.468 164.777 258.039 156.437 256.727 155.774C254.465 154.629 252.011 151.87 250.599 149.853C249.333 148.048 247.894 147.483 247.251 147.547C247.092 147.563 246.977 147.614 246.945 147.685C246.901 147.782 246.942 148.02 247.197 148.368C247.963 149.414 248.236 150.225 248.05 150.921C247.898 151.496 247.446 151.944 246.673 152.289C245.828 152.664 244.048 152.595 242.327 152.528C241.183 152.484 239.629 152.422 239.293 152.601C238.978 153.408 238.673 155.489 241.925 158.368C245 161.087 249.013 160.152 250.94 159.702C251.316 159.616 251.611 159.547 251.827 159.52C253.196 159.359 253.783 160.184 253.889 160.354H253.891Z" fill="#F1813B"/>
<path d="M242.885 159.525L242.974 160.336L243.48 165.013C244.002 169.13 243.595 172.484 243.595 172.484C243.602 173.777 242.814 175.301 241.846 176.156C240.729 177.142 240.145 177.345 239.233 177.676C235.806 178.922 234.312 178.538 233.068 174.998C231.824 171.458 232.263 169.263 235.19 158.286C235.19 158.286 235.996 156.07 233.726 154.579C231.71 153.255 232.376 150.078 234.234 147.672C237.199 143.835 243.416 159.015 242.885 159.527V159.525Z" fill="white"/>
<path d="M236.396 178.717C235.878 178.717 235.433 178.62 235.028 178.427C234.056 177.967 233.339 176.95 232.698 175.127C231.424 171.5 231.812 169.431 234.812 158.183C234.849 158.074 235.483 156.201 233.513 154.907C232.782 154.425 232.312 153.691 232.16 152.779C231.9 151.227 232.576 149.177 233.927 147.432C234.522 146.662 235.198 146.601 235.662 146.688C238.749 147.262 242.436 156.153 243.1 158.373C243.301 159.047 243.344 159.387 243.287 159.592L243.87 164.972C244.374 168.946 244.027 172.171 243.988 172.509C243.988 173.854 243.215 175.472 242.107 176.451C240.953 177.469 240.306 177.705 239.412 178.03L239.368 178.046C238.127 178.498 237.179 178.717 236.398 178.717H236.396ZM235.341 147.442C235.044 147.442 234.789 147.595 234.545 147.911C233.325 149.49 232.707 151.306 232.932 152.65C233.049 153.349 233.389 153.889 233.941 154.252C236.439 155.893 235.566 158.394 235.557 158.419C232.622 169.431 232.236 171.454 233.437 174.867C234.001 176.476 234.596 177.354 235.362 177.717C236.168 178.097 237.249 177.979 239.099 177.306L239.143 177.29C240.016 176.973 240.544 176.781 241.586 175.86C242.53 175.028 243.209 173.608 243.202 172.484C243.202 172.468 243.202 172.451 243.206 172.435C243.209 172.401 243.599 169.077 243.091 165.059L242.496 159.564C242.489 159.495 242.5 159.426 242.528 159.364C242.539 158.109 238.531 148.603 235.759 147.525C235.61 147.467 235.472 147.439 235.343 147.439L235.341 147.442Z" fill="#F1813B"/>
<path d="M240.849 152.333C240.849 152.333 245.883 152.873 247.442 151.641C248.598 150.73 246.442 148 246.279 147.786C244.913 145.986 241.725 141.789 241.249 141.194C240.819 140.656 239.997 139.372 238.926 139.468C237.855 139.562 231.918 140.539 231.486 140.73C230.582 141.128 230.964 142.387 231.626 143.079C232.288 143.771 240.849 152.333 240.849 152.333Z" fill="#F1813B"/>
<path d="M282.796 194.215C282.796 194.215 287.657 234.634 288.257 242.431C288.857 250.229 289.756 277.521 288.257 291.016C287.285 299.759 286.613 305.607 286.259 308.642C286.094 310.049 284.903 311.109 283.487 311.109H273.581C273.075 311.109 272.662 310.704 272.657 310.197C272.611 306.558 272.287 292.689 269.964 280.819C267.265 267.022 264.266 245.43 262.767 236.733C262.266 233.83 261.845 230.603 261.491 227.445L260.369 230.736C259.246 234.027 254.97 256.228 253.771 264.924C252.681 272.835 250.845 304.568 250.521 310.24C250.493 310.73 250.088 311.109 249.597 311.109H236.912C236.438 311.109 236.04 310.75 235.992 310.277C235.403 304.397 231.928 268.854 232.477 252.926C233.077 235.531 240.874 214.838 242.373 209.14C243.873 203.442 245.885 188.993 245.885 188.993C245.885 188.993 276.296 189.451 282.8 194.215H282.796Z" fill="white"/>
<path d="M283.486 311.502H273.58C272.863 311.502 272.272 310.919 272.263 310.203C272.216 306.298 271.879 292.646 269.578 280.894C267.817 271.89 265.928 259.573 264.411 249.676C263.6 244.387 262.899 239.82 262.379 236.798C262.002 234.614 261.648 232.118 261.299 229.212L260.736 230.86C259.619 234.136 255.375 256.137 254.155 264.976C253.073 272.821 251.261 304.074 250.908 310.259C250.87 310.955 250.291 311.498 249.595 311.498H236.908C236.229 311.498 235.666 310.988 235.599 310.314C234.915 303.504 231.536 268.73 232.083 252.912C232.565 238.947 237.693 222.784 240.447 214.102C241.144 211.907 241.695 210.172 241.992 209.039C243.469 203.43 245.474 189.081 245.494 188.936C245.52 188.739 245.692 188.599 245.887 188.598C247.133 188.617 276.498 189.113 283.026 193.894C283.114 193.958 283.171 194.055 283.183 194.163C283.231 194.567 288.051 234.68 288.644 242.396C289.306 250.993 290.103 277.917 288.644 291.053C287.641 300.088 286.961 305.975 286.646 308.682C286.458 310.286 285.1 311.496 283.484 311.496L283.486 311.502ZM261.489 227.054C261.503 227.054 261.517 227.054 261.531 227.056C261.713 227.075 261.857 227.219 261.878 227.401C262.289 231.046 262.705 234.076 263.152 236.666C263.675 239.694 264.376 244.265 265.186 249.558C266.702 259.447 268.589 271.753 270.348 280.744C272.66 292.56 272.998 306.271 273.048 310.192C273.051 310.482 273.29 310.718 273.58 310.718H283.486C284.704 310.718 285.729 309.806 285.869 308.597C286.184 305.892 286.863 300.005 287.867 290.974C289.322 277.885 288.526 251.037 287.867 242.463C287.295 235.021 282.776 197.323 282.429 194.436C276.204 190.157 249.579 189.465 246.223 189.394C245.906 191.626 244.111 204.079 242.752 209.245C242.449 210.395 241.897 212.137 241.196 214.344C238.452 222.991 233.345 239.087 232.867 252.944C232.324 268.712 235.698 303.439 236.381 310.241C236.407 310.514 236.636 310.721 236.91 310.721H249.597C249.878 310.721 250.112 310.502 250.13 310.222C250.482 304.032 252.296 272.75 253.383 264.875C254.606 256.01 258.872 233.915 259.998 230.612L261.12 227.321C261.175 227.162 261.326 227.056 261.49 227.056L261.489 227.054Z" fill="#F1813B"/>
<path d="M261.474 227.728C261.277 227.728 261.107 227.58 261.084 227.38C260.881 225.576 260.683 223.65 260.497 221.655C260.157 218.037 257.734 214.883 254.321 213.619L252.131 212.808C251.927 212.734 251.825 212.507 251.899 212.303C251.974 212.1 252.198 211.997 252.404 212.072L254.593 212.882C258.288 214.251 260.911 217.665 261.277 221.581C261.463 223.57 261.661 225.491 261.863 227.289C261.888 227.504 261.732 227.698 261.518 227.723C261.504 227.723 261.488 227.725 261.474 227.725V227.728Z" fill="#F1813B"/>
<path d="M239.696 311.105H247.778C248.352 311.105 248.868 311.449 249.086 311.98C249.803 313.723 251.263 317.797 251.067 321.661C251.014 322.716 250.136 323.544 249.079 323.544H225.361C224.271 323.544 223.442 322.548 223.66 321.478C223.922 320.199 224.823 318.515 227.425 317.002C231.636 314.552 236.927 312.102 238.596 311.344C238.942 311.187 239.317 311.105 239.697 311.105H239.696Z" fill="white"/>
<path d="M249.076 323.935H225.358C224.715 323.935 224.114 323.65 223.706 323.151C223.305 322.659 223.147 322.02 223.273 321.401C223.531 320.139 224.425 318.292 227.224 316.664C231.476 314.189 236.876 311.693 238.43 310.989C238.83 310.806 239.255 310.714 239.693 310.714H247.775C248.511 310.714 249.166 311.153 249.446 311.831C250.117 313.463 251.657 317.692 251.455 321.68C251.391 322.944 250.345 323.935 249.074 323.935H249.076ZM239.693 311.499C239.367 311.499 239.05 311.568 238.754 311.702C237.209 312.405 231.838 314.887 227.618 317.342C225.602 318.515 224.365 319.972 224.041 321.558C223.961 321.948 224.06 322.348 224.314 322.657C224.57 322.973 224.951 323.153 225.358 323.153H249.076C249.929 323.153 250.63 322.489 250.673 321.643C250.867 317.813 249.373 313.715 248.722 312.13C248.564 311.746 248.193 311.5 247.777 311.5H239.694L239.693 311.499Z" fill="#F1813B"/>
<path d="M238.596 316.804C238.497 316.804 238.398 316.767 238.322 316.691L234.922 313.343C234.768 313.191 234.766 312.943 234.916 312.789C235.068 312.635 235.316 312.633 235.47 312.784L238.871 316.131C239.025 316.283 239.026 316.531 238.876 316.685C238.8 316.763 238.697 316.802 238.596 316.802V316.804Z" fill="#F1813B"/>
<path d="M236.405 318.175C236.306 318.175 236.207 318.138 236.131 318.062L232.73 314.715C232.576 314.563 232.574 314.315 232.725 314.161C232.875 314.007 233.125 314.005 233.279 314.155L236.679 317.503C236.833 317.655 236.835 317.903 236.685 318.057C236.608 318.135 236.506 318.174 236.405 318.174V318.175Z" fill="#F1813B"/>
<path d="M275.36 311.105H283.442C284.016 311.105 284.533 311.449 284.75 311.98C285.467 313.723 286.927 317.797 286.731 321.661C286.678 322.716 285.8 323.544 284.743 323.544H261.025C259.935 323.544 259.106 322.548 259.324 321.478C259.586 320.199 260.487 318.515 263.089 317.002C267.3 314.552 272.591 312.102 274.26 311.344C274.606 311.187 274.981 311.105 275.361 311.105H275.36Z" fill="white"/>
<path d="M284.744 323.935H261.026C260.383 323.935 259.782 323.65 259.374 323.151C258.973 322.659 258.815 322.02 258.941 321.401C259.199 320.139 260.093 318.292 262.892 316.664C267.144 314.189 272.544 311.693 274.098 310.989C274.498 310.806 274.923 310.714 275.36 310.714H283.443C284.179 310.714 284.834 311.153 285.114 311.831C285.785 313.463 287.325 317.692 287.123 321.68C287.059 322.944 286.013 323.935 284.744 323.935ZM275.36 311.499C275.035 311.499 274.718 311.568 274.422 311.702C272.877 312.405 267.506 314.887 263.286 317.342C261.27 318.515 260.033 319.972 259.709 321.558C259.629 321.948 259.728 322.348 259.982 322.657C260.238 322.973 260.619 323.153 261.026 323.153H284.744C285.595 323.153 286.298 322.489 286.341 321.643C286.535 317.813 285.041 313.715 284.39 312.13C284.232 311.746 283.861 311.5 283.445 311.5H275.362L275.36 311.499Z" fill="#F1813B"/>
<path d="M275.172 316.511C275.073 316.511 274.974 316.474 274.898 316.398L271.496 313.051C271.342 312.899 271.34 312.651 271.49 312.497C271.641 312.343 271.89 312.341 272.044 312.491L275.447 315.839C275.601 315.991 275.602 316.239 275.452 316.393C275.376 316.471 275.273 316.51 275.172 316.51V316.511Z" fill="#F1813B"/>
<path d="M272.977 317.882C272.878 317.882 272.779 317.844 272.703 317.768L269.3 314.421C269.146 314.269 269.145 314.021 269.295 313.867C269.446 313.713 269.695 313.711 269.849 313.862L273.251 317.209C273.405 317.361 273.407 317.609 273.257 317.763C273.181 317.841 273.078 317.88 272.977 317.88V317.882Z" fill="#F1813B"/>
<path d="M266.049 118.463C265.872 118.523 265.683 118.599 265.485 118.697C265.485 118.697 265.037 118.969 264.628 119.722C264.219 120.474 263.536 122.795 262.647 122.658C261.76 122.522 260.666 118.904 260.666 118.904C260.666 118.904 260.325 117.128 257.593 117.812C254.862 118.495 252.745 119.654 251.927 120.132C251.109 120.61 250.357 120.747 249.537 120.679C248.718 120.61 246.056 119.04 246.534 116.514C247.011 113.988 249.334 112.269 251.382 112.282C253.515 112.292 256.57 110.917 257.117 110.643C257.664 110.37 260.879 109.053 262.629 110.028C264.191 110.899 265.506 112.282 266.217 114.671C266.672 116.197 266.322 117.596 266.274 118.056C266.255 118.237 266.223 118.408 266.051 118.465L266.049 118.463Z" fill="#F1813B"/>
<path d="M251.578 120.385C251.526 120.413 251.496 120.467 251.5 120.525C251.528 120.943 251.622 122.667 251.36 124.223C251.215 125.081 250.664 127.168 250.896 127.598C251.128 128.029 251.988 128.062 252.385 128.029C252.781 127.995 253.443 128.161 253.61 128.492C253.774 128.823 254.272 131.9 254.47 132.629C254.668 133.357 255.33 134.217 256.555 134.086C256.713 134.068 257.169 133.966 257.523 133.882C257.782 133.822 258.039 133.994 258.079 134.256C258.667 137.993 254.89 142.204 253.981 143.165C253.888 143.264 253.921 143.427 254.047 143.482C262.423 147.137 271.038 140.828 273.393 138.865C273.497 138.777 268.994 137.559 266.841 132.38C265.894 130.101 266.211 126.559 266.178 125.15C266.171 124.867 266.33 124.605 266.588 124.487C267.153 124.226 267.978 123.361 268.215 122.506C268.557 121.277 268.42 117.358 265.174 118.928C265.174 118.928 264.726 119.201 264.317 119.953C263.908 120.706 263.225 123.026 262.337 122.89C261.45 122.754 260.356 119.135 260.356 119.135C260.356 119.135 260.014 117.36 257.283 118.043C254.819 118.659 252.087 120.109 251.578 120.387V120.385Z" fill="white"/>
<path d="M259.515 145.001C257.681 145.001 255.787 144.665 253.893 143.838C253.718 143.762 253.59 143.604 253.551 143.415C253.512 143.227 253.569 143.032 253.7 142.893C254.774 141.754 258.239 137.773 257.695 134.313C257.692 134.292 257.677 134.277 257.667 134.27C257.656 134.263 257.637 134.256 257.615 134.26C256.812 134.447 256.653 134.465 256.599 134.47C255.236 134.619 254.36 133.702 254.095 132.728C254.004 132.396 253.861 131.631 253.709 130.822C253.553 129.987 253.339 128.843 253.259 128.659C253.206 128.555 252.765 128.388 252.42 128.416C252.176 128.436 250.94 128.501 250.553 127.781C250.346 127.395 250.459 126.639 250.809 124.981C250.877 124.658 250.939 124.368 250.974 124.154C251.225 122.665 251.142 121.017 251.11 120.548C251.096 120.339 251.206 120.138 251.392 120.037C251.919 119.75 254.682 118.284 257.189 117.658C258.313 117.376 259.219 117.447 259.879 117.868C260.524 118.279 260.703 118.891 260.734 119.029C261.267 120.791 262.043 122.41 262.397 122.499C262.779 122.559 263.384 121.097 263.616 120.548C263.749 120.231 263.866 119.959 263.972 119.762C264.42 118.943 264.916 118.624 264.97 118.59C266.425 117.884 267.286 118.206 267.753 118.597C268.859 119.521 268.845 121.701 268.594 122.607C268.33 123.556 267.429 124.526 266.753 124.837C266.638 124.89 266.567 125.007 266.571 125.136C266.578 125.423 266.571 125.797 266.562 126.23C266.528 127.923 266.479 130.48 267.204 132.226C268.376 135.047 270.431 137.115 273.308 138.375C273.593 138.501 273.75 138.57 273.784 138.802C273.803 138.936 273.75 139.074 273.646 139.163C271.729 140.76 266.022 144.999 259.515 144.999V145.001ZM254.459 143.227C262.101 146.376 269.829 141.199 272.669 138.949C269.769 137.593 267.689 135.435 266.48 132.528C265.693 130.631 265.744 127.976 265.778 126.218C265.786 125.798 265.794 125.437 265.786 125.159C265.776 124.717 266.025 124.313 266.425 124.129C266.873 123.924 267.626 123.166 267.838 122.4C268.045 121.653 268.026 119.849 267.252 119.201C266.833 118.851 266.199 118.872 265.369 119.268C265.301 119.316 264.97 119.571 264.661 120.139C264.572 120.3 264.459 120.569 264.338 120.854C263.855 122 263.26 123.428 262.276 123.274C261.255 123.117 260.331 120.405 259.98 119.245C259.977 119.233 259.973 119.219 259.97 119.206C259.966 119.194 259.874 118.792 259.442 118.523C258.977 118.235 258.263 118.199 257.377 118.42C255.128 118.983 252.645 120.256 251.9 120.654C251.935 121.292 251.986 122.853 251.746 124.287C251.709 124.508 251.645 124.811 251.574 125.145C251.436 125.795 251.151 127.145 251.247 127.423C251.326 127.57 251.857 127.678 252.353 127.636C252.843 127.595 253.695 127.783 253.96 128.314C254.066 128.528 254.199 129.199 254.477 130.679C254.619 131.436 254.766 132.22 254.849 132.523C254.909 132.743 255.268 133.826 256.513 133.693C256.562 133.688 256.752 133.658 257.435 133.498C257.665 133.445 257.908 133.49 258.102 133.621C258.297 133.752 258.43 133.961 258.467 134.192C259.037 137.812 255.762 141.804 254.458 143.227H254.459ZM251.893 120.497C251.893 120.497 251.893 120.497 251.893 120.499C251.893 120.499 251.893 120.499 251.893 120.497Z" fill="#F1813B"/>
<path d="M257.755 134.212C257.585 134.212 257.429 134.102 257.38 133.93C257.318 133.723 257.436 133.506 257.645 133.444C258.716 133.129 260.437 132.39 261.655 131.59C261.835 131.472 262.078 131.521 262.198 131.702C262.317 131.882 262.267 132.125 262.085 132.245C260.803 133.088 258.992 133.863 257.867 134.196C257.829 134.207 257.792 134.212 257.755 134.212Z" fill="#F1813B"/>
</g>
<defs>
<clipPath id="clip0_3198_2708">
<rect width="320" height="323.935" fill="white"/>
</clipPath>
</defs>
</svg>
