<svg width="56" height="56" viewBox="0 0 56 56" fill="none" xmlns="http://www.w3.org/2000/svg">
<g filter="url(#filter0_d_2352_3331)">
<path fill-rule="evenodd" clip-rule="evenodd" d="M19.5019 13.106C16.547 13.5705 13.7271 14.9436 11.73 16.8903C8.92571 19.6239 7.46765 22.6761 7.06822 26.6484C6.58547 31.4503 8.69557 36.5674 12.4187 39.6232C15.8921 42.4741 20.736 43.5363 25.1257 42.4097C26.5921 42.0335 28.5954 41.247 28.6709 41.0181C28.7369 40.8175 27.1251 39.0698 26.874 39.0698C26.7693 39.0698 26.3212 39.1934 25.8782 39.3443C23.4985 40.1553 20.8306 40.2889 18.6189 39.7078C12.8956 38.204 9.22661 32.8351 9.7776 26.7701C9.89738 25.4522 10.4715 23.3436 11.0007 22.2781C12.1264 20.0114 14.1063 18.039 16.4482 16.8509C19.314 15.3971 23.4139 15.3885 26.497 16.8296L27.4978 17.2974L27.9247 16.6606C28.1595 16.3103 28.4923 15.8508 28.6642 15.6393C28.8361 15.428 28.9768 15.2049 28.9768 15.1438C28.9768 14.8959 26.5694 13.8658 25.101 13.4854C23.363 13.035 20.9801 12.8737 19.5019 13.106ZM35.6707 13.2343C32.4781 14.0506 30.0957 16.1772 28.91 19.2692L28.7083 19.7953L28.2638 19.4523C26.8134 18.3331 24.9529 17.4485 23.4665 17.1714C20.0816 16.5403 16.4898 17.6099 14.1569 19.944C12.6458 21.4558 11.5939 23.4491 11.1576 25.6272C10.8867 26.98 10.9561 29.7505 11.2913 30.9667C11.6396 32.2301 12.5303 33.937 13.3676 34.9454C15.5236 37.5427 18.1474 38.7913 21.459 38.7959C23.1687 38.7983 24.5054 38.4862 26.1338 37.7047C26.7507 37.4086 27.3025 37.1663 27.36 37.1663C27.4175 37.1663 28.0013 37.7225 28.6575 38.4025C31.1893 41.026 33.3958 42.2563 36.5543 42.8053C38.0431 43.0641 38.6667 43.0647 40.2283 42.8084C45.5153 41.941 49 38.0521 49 33.0194C49 28.448 46.1844 24.9833 41.7165 24.0565C41.0291 23.9141 39.9659 23.8418 38.5562 23.8418C36.1491 23.8418 35.7114 23.7138 35.2702 22.8816C34.9618 22.2996 34.9637 21.8805 35.2787 21.1904C35.7997 20.0482 36.6855 19.59 38.3845 19.5837C39.3062 19.5803 39.6509 19.6398 40.1692 19.892C40.9208 20.2574 41.5539 20.9764 41.7733 21.7133C41.9726 22.3825 42.3028 22.5099 43.6126 22.4232C44.1744 22.3859 44.6876 22.3533 44.753 22.3507C44.9705 22.3423 44.7037 21.0732 44.3019 20.2044C43.144 17.7011 39.7998 16.2616 36.8029 16.9766C34.3747 17.5556 32.9719 18.9337 32.5181 21.1858C32.0566 23.475 32.9751 25.1483 35.2643 26.1886C35.8146 26.4386 36.2617 26.4891 38.6534 26.5708C40.9119 26.648 41.5442 26.7144 42.1619 26.9388C44.175 27.6706 45.7231 29.3681 46.1715 31.3355C46.3727 32.2184 46.3422 33.8722 46.1079 34.7821C45.8035 35.9647 45.2808 36.8542 44.2997 37.8592C42.8136 39.382 40.8295 40.1575 38.4203 40.1575C36.2908 40.1575 34.3741 39.5355 32.7214 38.3083C32.0129 37.7822 29.7763 35.418 29.509 34.9128C29.3635 34.6375 29.3927 34.538 29.7556 34.0742C30.2986 33.3808 31.0265 31.891 31.4007 30.708C31.6226 30.0054 31.7173 29.3112 31.7616 28.0567C31.8138 26.5879 31.7747 26.1385 31.4746 24.7486C30.7829 21.5458 31.1654 19.7397 32.9283 17.8868C34.3582 16.3838 35.6503 15.8301 37.9814 15.7217C40.5427 15.6027 42.3063 16.2511 43.9724 17.924C45.0574 19.0135 45.5725 19.9575 45.7949 21.2632C45.8773 21.7467 46.0067 22.2209 46.0827 22.3171C46.1806 22.4413 46.5561 22.4807 47.3761 22.4531L48.5315 22.4141L48.5112 21.2584C48.4762 19.2648 47.6559 17.5645 45.9424 15.9341C44.7456 14.7952 43.511 14.0526 41.8789 13.4898C40.7071 13.0857 40.4419 13.0463 38.6534 13.0096C37.0723 12.9774 36.5095 13.0197 35.6707 13.2343ZM23.2605 19.9712C26.009 20.6955 28.1287 22.87 28.7703 25.6233C29.0341 26.756 29.0319 28.6859 28.7657 29.7258C28.5163 30.6995 27.8362 32.1174 27.5687 32.2212C27.3543 32.3045 26.8063 31.7371 26.0569 30.6564C25.7779 30.2541 25.3519 29.7112 25.1099 29.4501C24.6942 29.001 24.6314 28.9785 23.9553 29.0352C23.5118 29.0724 23.0829 29.2085 22.8255 29.394C21.9346 30.0357 21.9533 31.4754 22.8593 32.0162C23.1078 32.1644 23.4701 32.4967 23.6644 32.7545C23.8587 33.0123 24.3158 33.5677 24.68 33.9888C25.0442 34.4099 25.3051 34.8153 25.2597 34.8896C25.2144 34.9639 24.8074 35.1936 24.3554 35.4002C21.4664 36.7205 18.0231 35.9638 15.8003 33.5204C12.8572 30.2852 12.948 25.224 16.0044 22.1421C16.5236 21.6187 17.281 21.0091 17.6875 20.7875C19.4133 19.8469 21.5829 19.5292 23.2605 19.9712ZM32.9712 28.115C32.8871 30.2226 32.6057 31.3468 31.6983 33.1999L31.0774 34.4684L31.3375 34.9675C31.4805 35.2421 32.0814 35.9633 32.6727 36.5703C33.5175 37.4373 33.9744 37.7833 34.8057 38.1853C36.9987 39.2457 39.3369 39.3103 41.5644 38.3722C44.0611 37.3206 45.5862 34.6042 45.1193 32.0403C44.7277 29.8899 43.3689 28.3972 41.2942 27.8384C40.855 27.7202 39.8611 27.6514 38.575 27.6504C36.1595 27.6485 35.329 27.5 34.0237 26.8365L33.0422 26.3376L32.9712 28.115ZM38.3845 30.3518C40.7662 30.4605 41.0921 30.5493 41.7694 31.2738C42.5137 32.0694 42.6226 33.1593 42.07 34.2812C41.4059 35.6295 40.273 36.2705 38.5862 36.252C36.9744 36.2343 35.4883 35.6073 34.493 34.5248C34.2063 34.2131 34.1825 34.117 34.312 33.7965C34.8867 32.3742 35.1824 31.5559 35.3713 30.8655C35.5657 30.1542 35.6186 30.0807 35.8777 30.1609C36.0368 30.2101 37.1649 30.296 38.3845 30.3518Z" fill="url(#paint0_linear_2352_3331)"/>
</g>
<defs>
<filter id="filter0_d_2352_3331" x="-4" y="0" width="64" height="64" filterUnits="userSpaceOnUse" color-interpolation-filters="sRGB">
<feFlood flood-opacity="0" result="BackgroundImageFix"/>
<feColorMatrix in="SourceAlpha" type="matrix" values="0 0 0 0 0 0 0 0 0 0 0 0 0 0 0 0 0 0 127 0" result="hardAlpha"/>
<feOffset dy="4"/>
<feGaussianBlur stdDeviation="2"/>
<feComposite in2="hardAlpha" operator="out"/>
<feColorMatrix type="matrix" values="0 0 0 0 0 0 0 0 0 0 0 0 0 0 0 0 0 0 0.25 0"/>
<feBlend mode="normal" in2="BackgroundImageFix" result="effect1_dropShadow_2352_3331"/>
<feBlend mode="normal" in="SourceGraphic" in2="effect1_dropShadow_2352_3331" result="shape"/>
</filter>
<linearGradient id="paint0_linear_2352_3331" x1="26.413" y1="11.4866" x2="46.4076" y2="39.7726" gradientUnits="userSpaceOnUse">
<stop stop-color="#F1813B"/>
<stop offset="0.502111" stop-color="#EA2D6E"/>
<stop offset="1" stop-color="#508BC6"/>
</linearGradient>
</defs>
</svg>
